<?xml version="1.0" encoding="utf-8"?>
<!-- Generator: Adobe Illustrator 27.1.1, SVG Export Plug-In . SVG Version: 6.00 Build 0)  -->
<svg version="1.1" id="Layer_1" xmlns="http://www.w3.org/2000/svg" xmlns:xlink="http://www.w3.org/1999/xlink" x="0px" y="0px"
	 viewBox="0 0 275 180" style="enable-background:new 0 0 275 180;" xml:space="preserve">
<g>
	<g>
		<polygon id="Rectangle-path" points="23.6,129.3 67.9,129.3 67.9,135.7 23.6,135.7 		"/>
		<polygon id="Rectangle-path_1_" points="23.6,117.2 67.9,117.2 67.9,123.5 23.6,123.5 		"/>
		<polygon id="Rectangle-path_2_" points="36.2,105 55.2,105 55.2,111.4 36.2,111.4 		"/>
		<polygon id="Rectangle-path_3_" points="36.2,92.9 55.2,92.9 55.2,99.3 36.2,99.3 		"/>
		<polygon id="Rectangle-path_4_" points="36.2,80.7 55.2,80.7 55.2,87.1 36.2,87.1 		"/>
		<polygon id="Rectangle-path_5_" points="36.2,68.6 55.2,68.6 55.2,74.9 36.2,74.9 		"/>
		<rect id="Rectangle-path_6_" x="23.6" y="56.4" width="44.3" height="6.4"/>
		<rect id="Rectangle-path_7_" x="23.6" y="44.3" width="44.3" height="6.4"/>
	</g>
	<g>
		<path id="Shape_16_" d="M74.2,123.5h68.1c1.2-2,2-4.1,2.5-6.4H74.2V123.5z"/>
		<path id="Shape_17_" d="M137,92.9H86.9v6.4h55.5C140.9,96.8,139.1,94.7,137,92.9z"/>
		<path id="Shape_18_" d="M86.9,80.7v6.4H137c2.1-1.8,3.9-3.9,5.3-6.4L86.9,80.7L86.9,80.7z"/>
		<path id="Shape_19_" d="M142.3,56.4H74.2v6.4h70.7C144.3,60.5,143.4,58.4,142.3,56.4z"/>
		<path id="Shape_20_" d="M121.4,44.3H74.2v6.4h63.5C133.4,46.7,127.7,44.3,121.4,44.3z"/>
		<rect id="Rectangle-path_8_" x="86.9" y="68.6" width="19" height="6.4"/>
		<path id="Shape_21_" d="M124.8,74.9h19.9c0.6-2,0.9-4.2,0.9-6.4h-20.7L124.8,74.9L124.8,74.9z"/>
		<polygon id="Rectangle-path_9_" points="86.9,105 105.8,105 105.8,111.4 86.9,111.4 		"/>
		<path id="Shape_22_" d="M124.8,105v6.4h20.7c0-2.2-0.3-4.3-0.9-6.4H124.8z"/>
		<path id="Shape_23_" d="M74.2,135.6l47.2,0.1c6.3,0,12-2.4,16.3-6.4H74.2V135.6z"/>
	</g>
	<g>
		<polygon id="Rectangle-path_10_" points="150.2,129.3 181.8,129.3 181.8,135.7 150.2,135.7 		"/>
		<polygon id="Rectangle-path_11_" points="150.2,117.2 181.8,117.2 181.8,123.5 150.2,123.5 		"/>
		<polygon id="Rectangle-path_12_" points="162.8,105 181.8,105 181.8,111.4 162.8,111.4 		"/>
		<polygon id="Rectangle-path_13_" points="162.8,92.9 181.8,92.9 181.8,99.3 162.8,99.3 		"/>
		<polygon id="Shape_24_" points="190.6,56.4 150.2,56.4 150.2,62.8 192.8,62.8 		"/>
		<polygon id="Shape_25_" points="186.4,44.3 150.2,44.3 150.2,50.7 188.6,50.7 		"/>
		<polygon id="Rectangle-path_14_" points="219.8,129.3 251.4,129.3 251.4,135.7 219.8,135.7 		"/>
		<polygon id="Rectangle-path_15_" points="219.8,117.2 251.4,117.2 251.4,123.5 219.8,123.5 		"/>
		<polygon id="Rectangle-path_16_" points="219.8,105 238.8,105 238.8,111.4 219.8,111.4 		"/>
		<polygon id="Rectangle-path_17_" points="219.8,92.9 238.8,92.9 238.8,99.3 219.8,99.3 		"/>
		<polygon id="Shape_26_" points="219.8,87.1 238.8,87.1 238.8,80.7 219.8,80.7 219.8,80.7 202.6,80.7 200.8,85.9 199,80.7 
			181.8,80.7 181.8,80.7 162.8,80.7 162.8,87.1 181.8,87.1 181.8,81.3 183.8,87.1 217.8,87.1 219.8,81.3 		"/>
		<polygon id="Shape_27_" points="238.8,68.6 206.8,68.6 204.6,74.9 238.8,74.9 		"/>
		<polygon id="Shape_28_" points="215.2,44.3 213,50.7 251.4,50.7 251.4,44.3 		"/>
		<polygon id="Shape_29_" points="200.8,135.6 203,129.3 198.6,129.3 		"/>
		<polygon id="Shape_30_" points="196.6,123.5 205,123.5 207.2,117.2 194.4,117.2 		"/>
		<polygon id="Shape_31_" points="192.3,111.4 209.3,111.4 211.5,105 190.1,105 		"/>
		<polygon id="Shape_32_" points="188.1,99.3 213.5,99.3 215.7,92.9 185.9,92.9 		"/>
		<polygon id="Shape_33_" points="162.8,74.9 197,74.9 194.8,68.6 162.8,68.6 		"/>
		<polygon id="Shape_34_" points="208.8,62.8 251.4,62.8 251.4,56.4 211,56.4 		"/>
	</g>
</g>
</svg>
