<?xml version="1.0" encoding="UTF-8"?>
<svg id="Logo" xmlns="http://www.w3.org/2000/svg" xmlns:xlink="http://www.w3.org/1999/xlink" xmlns:svg="http://www.w3.org/2000/svg" xmlns:sodipodi="http://sodipodi.sourceforge.net/DTD/sodipodi-0.dtd" xmlns:rdf="http://www.w3.org/1999/02/22-rdf-syntax-ns#" xmlns:inkscape="http://www.inkscape.org/namespaces/inkscape" xmlns:dc="http://purl.org/dc/elements/1.1/" xmlns:cc="http://creativecommons.org/ns#" version="1.1" viewBox="0 0 940 899">
  <defs>
    <style>
      .cls-1 {
        mask: url(#mask);
      }

      .cls-2 {
        fill: url(#radial-gradient);
      }

      .cls-2, .cls-3, .cls-4, .cls-5, .cls-6 {
        stroke-width: 0px;
      }

      .cls-3 {
        fill: url(#radial-gradient-2);
      }

      .cls-4 {
        fill: url(#radial-gradient-3);
      }

      .cls-5 {
        fill: url(#radial-gradient-4);
      }

      .cls-6 {
        fill: #fff;
      }
    </style>
    <radialGradient id="radial-gradient" cx="266" cy="874.3" fx="266" fy="874.3" r="661.3" gradientTransform="translate(.6 1079.3) scale(1 -1)" gradientUnits="userSpaceOnUse">
      <stop offset="0" stop-color="#00a1df"/>
      <stop offset=".1" stop-color="#0092d7"/>
      <stop offset=".4" stop-color="#006cc1"/>
      <stop offset=".6" stop-color="#003da6"/>
      <stop offset=".7" stop-color="#043799"/>
      <stop offset=".9" stop-color="#102777"/>
      <stop offset="1" stop-color="#152169"/>
    </radialGradient>
    <radialGradient id="radial-gradient-2" cx="217.9" cy="957.5" fx="217.9" fy="957.5" r="1096.4" gradientTransform="translate(.6 1079.3) scale(1 -1)" gradientUnits="userSpaceOnUse">
      <stop offset="0" stop-color="#fff"/>
      <stop offset="0" stop-color="#fbfeff"/>
      <stop offset="0" stop-color="#bae7f9"/>
      <stop offset=".1" stop-color="#87d5f4"/>
      <stop offset=".2" stop-color="#63c9f1"/>
      <stop offset=".2" stop-color="#4cc1ef"/>
      <stop offset=".3" stop-color="#44beee"/>
      <stop offset=".3" stop-color="#37b8eb"/>
      <stop offset=".3" stop-color="#19ace5"/>
      <stop offset=".4" stop-color="#07a4e0"/>
      <stop offset=".5" stop-color="#00a1df"/>
      <stop offset=".8" stop-color="#0045ab"/>
      <stop offset=".8" stop-color="#003da6"/>
      <stop offset="1" stop-color="#0059b6"/>
    </radialGradient>
    <radialGradient id="radial-gradient-3" cx="496" cy="661.8" fx="195.2" fy="661.8" r="381.4" gradientTransform="translate(1080.8 936.2) rotate(-88.2) scale(1 -1)" gradientUnits="userSpaceOnUse">
      <stop offset="0" stop-color="#fff"/>
      <stop offset=".3" stop-color="#fdfdfd"/>
      <stop offset=".5" stop-color="#f6f6f6"/>
      <stop offset=".5" stop-color="#eaeaea"/>
      <stop offset=".6" stop-color="#d9d9d9"/>
      <stop offset=".6" stop-color="#c3c3c3"/>
      <stop offset=".7" stop-color="#a7a7a7"/>
      <stop offset=".7" stop-color="#868686"/>
      <stop offset=".7" stop-color="#606060"/>
      <stop offset=".8" stop-color="#353535"/>
      <stop offset=".8" stop-color="#060606"/>
      <stop offset=".8" stop-color="#000"/>
    </radialGradient>
    <mask id="mask" x="110" y="62.3" width="346.6" height="719.4" maskUnits="userSpaceOnUse">
      <g id="SVGID">
        <g id="g82">
          <path id="path80" class="cls-4" d="M205.6,421.9c0-164.9,104.1-305.5,250.2-359.6-192.2,7.5-345.8,165.6-345.8,359.7s153.9,352.6,346.4,359.7c-146.3-54-250.8-194.7-250.8-359.8Z"/>
        </g>
      </g>
    </mask>
    <radialGradient id="radial-gradient-4" cx="391.3" cy="727.1" fx="391.3" fy="727.1" r="445.5" gradientTransform="translate(.6 1079.3) scale(1 -1)" gradientUnits="userSpaceOnUse">
      <stop offset=".3" stop-color="#44beee" stop-opacity="0"/>
      <stop offset=".5" stop-color="#2b99d9" stop-opacity=".3"/>
      <stop offset=".7" stop-color="#1476c6" stop-opacity=".6"/>
      <stop offset=".8" stop-color="#0561ba" stop-opacity=".8"/>
      <stop offset=".9" stop-color="#0059b6"/>
    </radialGradient>
  </defs>
  <sodipodi:namedview id="namedview107" bordercolor="#666666" borderopacity="1" gridtolerance="10" guidetolerance="10" inkscape:current-layer="Logo" inkscape:cx="360" inkscape:cy="360" inkscape:document-rotation="0" inkscape:pageopacity="0" inkscape:pageshadow="2" inkscape:window-height="1017" inkscape:window-maximized="1" inkscape:window-width="1920" inkscape:window-x="1912" inkscape:window-y="-8" inkscape:zoom="1.1111111" objecttolerance="10" pagecolor="#ffffff" showgrid="false"/>
  <circle id="circle17" class="cls-2" cx="470" cy="422" r="353.7" inkscape:export-xdpi="90" inkscape:export-ydpi="90"/>
  <path id="path48" class="cls-3" d="M210.2,421.9c0-162,102.3-300.2,245.8-353.3-188.8,7.4-339.7,162.7-339.7,353.4s151.2,346.4,340.3,353.4c-143.7-53.1-246.4-191.3-246.4-353.5Z" inkscape:export-xdpi="90" inkscape:export-ydpi="90"/>
  <g class="cls-1">
    <path id="path96" class="cls-5" d="M210.2,421.9c0-162,102.3-300.2,245.8-353.3-188.8,7.4-339.7,162.7-339.7,353.4s151.2,346.4,340.3,353.4c-143.7-53.1-246.4-191.3-246.4-353.5Z" inkscape:export-xdpi="90" inkscape:export-ydpi="90"/>
  </g>
  <g id="g104" inkscape:export-xdpi="90" inkscape:export-ydpi="90">
    <path id="path98" class="cls-6" d="M464,388.3c23.5-57.9-20.4-73.6-49-73.6h-94.7c7.9,5.4,6.6,12.6,5,17l-55.2,176.4c-2.2,7-10.4,14.3-14.8,15.4h76.6c-4.2-.8-10.2-6.8-8.1-14.9l20-63.8c0,0,92.3,12.5,120.2-56.5h0ZM389.5,330.9c10,0,37.8,1.4,19.8,53.9-18.8,55.2-60.4,43.8-60.4,43.8l30.7-97.8h9.9Z"/>
    <path id="path100" class="cls-6" d="M525.3,523.6h51.6c-16.5-5.3-40.9-20.9-50.6-32,7.9-8.5,17.6-19.4,19.4-41.3h-26.7s5.1,2.9,5.1,9.2-2.4,13.9-6.9,19.5c-7.9-11.6-16.2-24.9-19.2-44.3,10.5-5.2,25.3-10.9,36.9-21.1,11.1-9.7,13.7-19,13.9-25v-.8c0-6.3-2.5-12.2-7-16.6-7.8-7.7-19.9-10.8-32.8-8.4-10.3,2-19.1,7.5-23.5,11.5-15.5,14.6-17.5,38.7-17.5,49.6s0,4.6.2,5.8c-.9.4-2.5,1-2.5,1-11.4,4.2-41.8,12.3-52.6,37.2-1.4,3.1-3.3,10-3.3,18s1.5,14.5,5.9,21.5c7.7,12,20.6,19.6,41.5,19.2,22.6-.4,44.9-15.8,48.8-18.7,3.8,3.6,14,13.2,19.3,15.7h0ZM525.3,384.1c-2.7,16.8-24.5,33.8-29.8,36.1-1-9.4-.5-24.4,7.4-36.5,5.2-8.1,12.2-11.6,17.8-9.6,4.5,1.6,5,5.7,4.6,10.1h0ZM495.1,496.5c-3,1.9-15,8-26.2,9-10.4,1-27.7-3-27.6-23.9,0-17.8,19.4-30.9,29.9-35.4,4.2,17.2,13.8,36.6,24,50.2h0Z"/>
    <path id="path102" class="cls-6" d="M682,331.1c30.7-7.4,55.9,16.6,58.2,18.3l8.7-27.8c-12.1-3.6-100-33.4-162.2,37.5-38.2,43.6-47.6,133,.9,157,51.9,25.6,109.2-3.9,113.4-6l23.7-75.5c2.6-9.1,8.4-15,18.6-18.9h-82.3c12,5,11.1,14,10.2,17.8l-23.7,75.5c-3.1.6-69.4,17.1-32.3-98.7,8.2-24.9,30.5-70.4,66.9-79.2h0Z"/>
  </g>
</svg>