<?xml version="1.0" encoding="utf-8"?>
<!-- Generator: Adobe Illustrator 27.1.1, SVG Export Plug-In . SVG Version: 6.00 Build 0)  -->
<svg version="1.1" id="Layer_1" xmlns="http://www.w3.org/2000/svg" xmlns:xlink="http://www.w3.org/1999/xlink" x="0px" y="0px"
	 viewBox="0 0 455 444.3" style="enable-background:new 0 0 455 444.3;" xml:space="preserve">
<style type="text/css">
	.st0{fill:url(#SVGID_1_);}
	.st1{fill:#FFFFFF;}
</style>
<g>
	
		<linearGradient id="SVGID_1_" gradientUnits="userSpaceOnUse" x1="227.5" y1="-20.5928" x2="227.5" y2="169.2973" gradientTransform="matrix(1 0 0 1 0 147.7977)">
		<stop  offset="0" style="stop-color:#00AAEE"/>
		<stop  offset="1" style="stop-color:#0055AA"/>
	</linearGradient>
	<path class="st0" d="M419.5,127.2h-384v189.9h194.1"/>
	<path class="st1" d="M225.4,165.2v89.5l-32.9-89.5h-32.9l-27.9,74.3c-3.4-18.6-22.8-25.3-38-30.4c-10.1-3.4-21.1-7.6-21.1-13.5
		c0-4.2,5.9-8.4,16.9-7.6c7.6,0.8,14.3,0.8,27.9,7.6l13.5-22.8c-12.7-6.8-29.5-10.1-43-10.1c-16,0-29.5,5.1-38,13.5
		c-5.9,5.9-8.4,13.5-9.3,21.9c0,11.8,4.2,20.3,13.5,27c7.6,5.1,16.9,8.4,25.3,11c11,3.4,19.4,6.8,19.4,12.7
		c-0.8,7.6-9.3,9.3-15.2,9.3c-10.1,0.8-18.6-0.8-31.2-8.4l-11.8,22.8c12.7,7.6,26.2,11,42.2,11c11,0,27.9-3.4,37.1-11.8l-1.7,7.6
		h32.1l5.9-14.3c12.7,3.4,27,4.2,39.7,0l4.2,14.3h57.4v-33.8h11.8c29.5,0,47.3-14.3,47.3-39.7c0-28.7-16.9-40.5-53.2-40.5H225.4z
		 M163.8,239.5l11.8-38h0.8l11.8,38C179.8,242,171.4,242,163.8,239.5z M257.5,220v-30.4h8.4c11,0,19.4,3.4,19.4,14.3
		c0,11.8-8.4,16-19.4,16H257.5z"/>
</g>
</svg>
